<svg xmlns="http://www.w3.org/2000/svg" viewBox="-8 -8 96 76" width="64" height="64">
  <rect x="-8" y="-8" width="96" height="76" fill="#ffffff"/>
  <path d="M63.0562 1.29415C66.2988 4.75237 73.6844 12.9677 75.2426 17.0885C75.8406 18.671 76.4481 21.7646 73.9536 21.9386C71.7999 22.0887 71.3448 19.0047 70.6491 17.6391C70.1202 16.5999 69.1911 15.27 68.4787 14.3334C66.4465 11.6617 63.6947 9.12579 61.5838 6.45645L57.6694 11.5663C50.2599 29.0719 76.9818 26.4645 78.6018 42.3209C80.3458 59.4022 58.6129 65.9325 48.0395 54.1184L45.1972 50.5291C44.7088 50.5982 42.9624 52.8337 42.343 53.4081C29.5729 65.2152 9.53871 60.4938 2.45324 44.9854C-3.36714 32.2465 1.4526 16.8502 13.9082 10.3747C22.5375 5.88922 32.5868 7.24057 41.9785 7.40025C43.477 16.8335 41.5472 28.6072 34.2426 35.2805C29.4767 39.6339 23.2365 41.7799 16.8427 41.8132C15.5211 41.82 14.5739 40.6019 14.7912 39.2983C14.9634 38.2655 15.8243 37.491 16.8696 37.432C18.5252 37.3387 20.1784 37.2264 21.8084 36.8845C30.6538 35.0313 35.8414 28.031 37.5864 19.9074C38.5857 15.2555 34.4738 11.29 29.7183 11.4424C25.9921 11.5616 22.2635 11.7808 18.7184 13.0511C8.10447 16.8621 2.58904 27.8564 5.03108 38.8221C5.18393 39.5065 5.41556 40.1635 5.66802 40.813C5.93275 41.4941 7.17602 41.3764 7.25631 40.6501C7.83525 35.4378 10.1034 30.5424 13.7581 26.7887C17.1602 23.2923 22.0086 21.9219 26.1207 19.5124C27.4032 18.7596 28.5079 17.8111 29.7476 17.0235C29.954 16.8923 30.2207 16.9132 30.4096 17.0686C30.5299 17.1675 30.6074 17.3107 30.6115 17.4663C30.6595 19.2819 29.453 20.8557 28.3078 22.1793C24.341 26.7625 18.1013 26.8912 14.4323 32.8233C6.6178 45.4573 15.421 58.4989 30.0971 55.1932C35.9961 53.8657 39.7294 50.0858 43.2721 45.5169C43.988 44.5937 44.1633 43.2027 45.8366 43.2027C47.5099 43.2027 48.2491 46.0031 49.1831 47.967C51.3392 52.4977 57.2787 56.69 62.3891 55.1432C65.7079 54.1398 67.2041 50.1263 66.6585 46.9016C65.372 39.2988 49.8311 37.671 46.7267 27.7873C43.2459 16.7096 55.5085 8.13432 61.1097 0.233567L61.6005 0C61.8936 0 62.7441 0.960484 63.0562 1.29177V1.29415ZM52.204 18.6043C51.0557 18.9118 50.6221 21.7432 50.5458 22.7775C49.6453 34.7609 68.7503 34.3891 70.7325 45.679C71.1614 48.1243 70.6968 49.397 70.5443 51.6397C70.4609 52.8576 71.3448 51.8304 71.7093 51.3728C74.2967 48.1195 75.0948 42.8261 72.9435 39.1701C68.2262 31.1549 52.4018 30.2779 52.204 18.6019V18.6043Z" fill="#002366"/>
</svg>
