<svg width="857" height="223" viewBox="0 0 857 223" fill="none" xmlns="http://www.w3.org/2000/svg">
<g clip-path="url(#clip0_536_904)">
<path d="M106.4 94.3H118.4L97.8004 59L77.2004 94.3H89.3004L70.4004 127.1H94.6004V147.2H101V127.1H125.3L106.4 94.3Z" fill="#1B9140"/>
<path d="M53.3004 115.5H59.8004L48.4004 95.9004L37.1004 115.5H44.1004L33.4004 134H46.6004V145H50.3004V134H64.0004L53.3004 115.5Z" fill="#1B9140"/>
<path d="M162.301 134L151.501 115.5H158.601L147.201 95.9004L135.801 115.5H142.301L131.601 134H145.401V145H149.101V134H162.301Z" fill="#1B9140"/>
<path fill-rule="evenodd" clip-rule="evenodd" d="M185 151.599H10.7002V141.399H185V151.599ZM44.7002 172.799C36.1002 173.899 27.4002 175.699 22.1002 176.999L19.6002 167.099C25.2002 165.699 34.3002 163.799 43.4002 162.699C47.9002 162.099 52.6002 161.799 56.8002 161.699C61.0002 161.699 65.1002 161.999 68.5002 163.099C71.2002 163.899 75.9002 164.599 82.0002 164.999C87.9002 165.399 94.7002 165.599 101.5 165.499C108.3 165.399 114.9 165.199 120.4 164.699C126.1 164.199 130.2 163.599 132.2 162.999C138.5 161.099 147.4 161.499 155.5 162.599C163.8 163.699 172.3 165.499 178.1 167.099L175.4 176.999C170 175.499 162 173.799 154.2 172.799C146.2 171.799 139.2 171.699 135.2 172.899C132.1 173.799 127 174.499 121.3 174.999C115.5 175.499 108.6 175.799 101.6 175.799C94.6002 175.899 87.5002 175.699 81.3002 175.299C75.2002 174.899 69.5002 174.099 65.6002 172.899C63.7002 172.299 60.7002 171.999 57.0002 171.999C53.2002 171.999 49.0002 172.299 44.7002 172.799ZM37.8002 198.799C37.2002 198.999 36.6002 199.299 36.0002 199.499L32.5002 189.899C33.0002 189.699 33.5002 189.499 34.1002 189.299C37.4002 188.099 42.5002 186.099 48.0002 184.699C54.2002 183.099 61.9002 181.799 68.5002 183.599C79.0002 186.499 93.2002 186.999 106 186.499C118.9 185.999 129.4 184.499 132.3 183.599C135.3 182.799 139 183.099 142.2 183.599C145.6 184.099 149.3 184.999 152.7 185.899C156.1 186.799 159.2 187.799 161.5 188.599C162.6 188.999 163.6 189.299 164.2 189.499C164.5 189.599 164.8 189.699 165 189.799L165.2 189.899H165.3C165.3 189.899 165.3 189.899 163.6 194.699C161.9 199.499 161.8 199.499 161.8 199.499H161.7L161.5 199.399C161.3 199.299 161.1 199.299 160.8 199.199C160.2 198.999 159.3 198.699 158.2 198.299C156 197.599 153.1 196.599 149.9 195.799C146.7 194.899 143.4 194.199 140.6 193.699C137.5 193.199 135.7 193.299 135.1 193.499C130.9 194.699 119.4 196.299 106.3 196.799C93.2002 197.299 77.7002 196.799 65.7002 193.499C61.9002 192.499 56.5002 193.099 50.5002 194.599C45.6002 195.799 41.1002 197.499 37.8002 198.799Z" fill="#20B9DC"/>
<path fill-rule="evenodd" clip-rule="evenodd" d="M146.4 210.7C98.7002 232.8 61.9002 219.5 48.7002 209L55.1002 201C65.2002 209 97.8002 221.9 142.1 201.4L146.4 210.7Z" fill="#20B9DC"/>
<path d="M180.4 76.4994C173 76.9994 166.9 74.4994 164.2 66.9994C161.5 59.4994 163.4 52.3993 170.2 48.5993C177.1 44.6993 175.7 41.0993 171.6 36.6993C167 31.7993 162 27.0993 157.3 22.2993C154.2 19.0993 151.4 17.8993 148.6 19.8993C147.6 20.5993 146.7 21.5993 145.7 23.0993C141.9 28.9993 136.6 31.3993 130.4 30.3993C129.1 30.1993 127.9 29.8993 126.5 29.3993C119.5 26.7993 117.1 20.3993 117.7 10.3993C117.9 7.99935 115.1 3.49935 113.5 3.29935C108.2 2.89935 102.8 2.79935 97.3999 2.89935C91.9999 2.79935 86.6999 2.89935 81.2999 3.29935C79.5999 3.49935 76.8999 7.99935 77.0999 10.3993C77.6999 20.3993 75.2999 26.7993 68.2999 29.3993C66.9999 29.8993 65.6999 30.1993 64.3999 30.3993C58.1999 31.3993 52.8999 28.9993 49.0999 23.0993C48.1999 21.5993 47.1999 20.5993 46.1999 19.8993C43.4999 17.9993 40.5999 19.0993 37.4999 22.2993C32.7999 27.0993 27.7999 31.7993 23.1999 36.6993C19.0999 40.9993 17.6999 44.5993 24.5999 48.5993C31.4999 52.4993 33.2999 59.4994 30.5999 66.9994C27.8999 74.4994 21.7999 76.8994 14.3999 76.4994C4.09992 75.8994 3.29992 76.3994 4.69992 84.4994C4.69992 84.5993 4.69992 84.6994 4.79992 84.7994C11.5999 85.0994 18.3999 85.3993 25.0999 85.6993C32.1999 85.9994 39.1999 86.3993 46.0999 86.6993C46.1999 86.1993 46.2999 85.7994 46.3999 85.2994C53.7999 55.2994 75.0999 45.5993 92.2999 44.5993C93.9999 44.4993 95.5999 44.4993 97.2999 44.5993C98.8999 44.4993 100.6 44.4993 102.3 44.5993C119.5 45.5993 140.8 55.2994 148.2 85.2994C148.3 85.7994 148.4 86.1993 148.5 86.6993C155.4 86.3993 162.4 86.0993 169.5 85.6993C176.2 85.3993 182.9 85.0994 189.8 84.7994C189.8 84.6994 189.8 84.5993 189.9 84.4994C191.5 76.3994 190.8 75.7994 180.4 76.4994Z" fill="#9D9F9F"/>
<path d="M336.1 83.9004H322.5L296.3 110.7V83.9004H286.1V151.2H296.3V123.3L298.4 121.3L322.6 151.2H336.2L305.6 114.4L336.1 83.9004Z" fill="#02252D"/>
<path d="M373.5 82.6006C363.8 82.6006 355.5 86.0006 348.5 92.8006C341.5 99.6006 338.1 107.801 338.1 117.201C338.1 128.001 341.9 136.701 349.5 143.401C356.4 149.401 364.2 152.401 372.9 152.401C382.7 152.401 391.1 149.001 398.1 142.201C405 135.501 408.5 127.201 408.5 117.501C408.5 107.901 405.1 99.6006 398.2 92.8006C391.4 86.0006 383.1 82.6006 373.5 82.6006ZM391 135.601C386.1 140.501 380.2 142.901 373.1 142.901C366.6 142.901 360.8 140.501 355.9 135.701C350.9 130.901 348.4 124.801 348.4 117.301C348.4 110.201 350.8 104.201 355.6 99.4006C360.4 94.5006 366.3 92.1006 373.4 92.1006C380.4 92.1006 386.3 94.5006 391.1 99.4006C395.9 104.301 398.3 110.301 398.3 117.501C398.3 124.601 395.9 130.701 391 135.601Z" fill="#02252D"/>
<path d="M456.3 131.2L433.2 78.7998L419 151.2H429.5L436.8 110.5L456.1 154.3L476.1 110.6L482.6 151.2H493L480.3 78.7998L456.3 131.2Z" fill="#02252D"/>
<path d="M499.6 151.201H510.6L518.1 134.801H546.9L554 151.201H565.1L532.9 79.6006L499.6 151.201ZM522.3 125.301L532.8 102.401L542.8 125.301H522.3Z" fill="#02252D"/>
<path d="M771.3 108.901H742.2V82.6006H732.1V149.901H742.2V118.501H771.3V149.901H781.4V82.6006H771.3V108.901Z" fill="#02252D"/>
<path d="M672.5 82.8002H662.3V154.3L711.4 103V150.2H721.6V78.2002L672.5 129.6V82.8002Z" fill="#02252D"/>
<path d="M639.4 139.201H617.6V82.6006H606.7V139.201H584.9V82.6006H574V150.101H582.8H650.3V82.6006H639.4V139.201Z" fill="#02252D"/>
<path d="M824.7 115.301C820.6 111.701 815 109.901 808 109.901H803.3V82.6006H793.1V150.001H804.6C810.2 150.001 814.5 149.601 817.4 148.801C820.3 148.001 822.9 146.501 825.1 144.401C829 140.601 830.9 135.801 830.9 130.101C830.9 123.801 828.8 118.901 824.7 115.301ZM806.6 140.601H803.2V119.401H807C816.3 119.401 821 123.001 821 130.201C821 137.101 816.2 140.601 806.6 140.601Z" fill="#02252D"/>
<path d="M856.3 82.6006H845.4V150.201H856.3V82.6006Z" fill="#02252D"/>
<path d="M241.1 82.6006V93.0006C247.7 93.0006 254 95.6006 258.6 100.201C261.9 103.501 264.2 107.601 265.2 112.001H240.5V122.901H265.2C264.2 127.301 261.9 131.501 258.6 134.701C253.9 139.301 247.6 141.901 241.1 141.901V152.301C250.5 152.301 259.5 148.601 266.1 142.101C272.7 135.601 276.5 126.701 276.5 117.401C276.5 108.201 272.8 99.3006 266.1 92.7006C259.5 86.2006 250.5 82.6006 241.1 82.6006Z" fill="#02252D"/>
</g>
<defs>
<clipPath id="clip0_536_904">
<rect width="856" height="223" fill="white" transform="translate(0.5)"/>
</clipPath>
</defs>
</svg>
